<mxfile host="app.diagrams.net" modified="2023-05-13T20:51:58.296Z" agent="Mozilla/5.0 (Windows NT 10.0; Win64; x64) AppleWebKit/537.36 (KHTML, like Gecko) Chrome/113.0.0.0 Safari/537.36" version="21.3.0" etag="bokeU8iEU_mq6HPCa6Se" type="github">
  <diagram name="PÃ¡gina-1" id="Oa41LDcgYtVZARScy167">
    <mxGraphModel>
      <root>
        <mxCell id="0" />
        <mxCell id="1" parent="0" />
      </root>
    </mxGraphModel>
  </diagram>
</mxfile>
